<?xml version="1.0" encoding="UTF-8" standalone="no"?>
<!DOCTYPE svg PUBLIC "-//W3C//DTD SVG 20010904//EN"
              "http://www.w3.org/TR/2001/REC-SVG-20010904/DTD/svg10.dtd">

<svg xmlns="http://www.w3.org/2000/svg"
     width="2.66667in" height="2.66667in"
     viewBox="0 0 240 240">
     
<g transform='scale(62)'>
  <polygon points='0 2, 2 0, 4 2 z' fill='white' />
  <rect x='2.75' y='' width='.5' height='1.25' fill='white'/>

</g>
  <path id="Selection"
        fill="white"
        d="M 31.00,121.00
           C 31.00,121.00 31.00,240.00 31.00,240.00
             31.00,240.00 134.00,240.00 134.00,240.00
             134.00,240.00 134.00,179.00 134.00,179.00
             134.00,179.00 166.00,179.00 166.00,179.00
             166.00,179.00 166.00,240.00 166.00,240.00
             166.00,240.00 209.00,240.00 209.00,240.00
             209.00,240.00 209.00,121.00 209.00,121.00
             209.00,121.00 31.00,121.00 31.00,121.00 Z
           M 65.00,134.00
           C 65.00,134.00 65.00,155.00 65.00,155.00
             65.00,155.00 44.00,155.00 44.00,155.00
             44.00,155.00 44.00,134.00 44.00,134.00
             44.00,134.00 65.00,134.00 65.00,134.00 Z
           M 91.00,134.00
           C 91.00,134.00 91.00,155.00 91.00,155.00
             91.00,155.00 70.00,155.00 70.00,155.00
             70.00,155.00 70.00,134.00 70.00,134.00
             70.00,134.00 91.00,134.00 91.00,134.00 Z
           M 65.00,160.00
           C 65.00,160.00 65.00,181.00 65.00,181.00
             65.00,181.00 44.00,181.00 44.00,181.00
             44.00,181.00 44.00,160.00 44.00,160.00
             44.00,160.00 65.00,160.00 65.00,160.00 Z
           M 91.00,160.00
           C 91.00,160.00 91.00,181.00 91.00,181.00
             91.00,181.00 70.00,181.00 70.00,181.00
             70.00,181.00 70.00,160.00 70.00,160.00
             70.00,160.00 91.00,160.00 91.00,160.00 Z" />
</svg>
